<?xml version="1.0" encoding="UTF-8" standalone="no"?>
<!-- Created with Inkscape (http://www.inkscape.org/) -->

<svg
   xmlns:dc="http://purl.org/dc/elements/1.1/"
   xmlns:cc="http://creativecommons.org/ns#"
   xmlns:rdf="http://www.w3.org/1999/02/22-rdf-syntax-ns#"
   xmlns:svg="http://www.w3.org/2000/svg"
   xmlns="http://www.w3.org/2000/svg"
   xmlns:sodipodi="http://sodipodi.sourceforge.net/DTD/sodipodi-0.dtd"
   xmlns:inkscape="http://www.inkscape.org/namespaces/inkscape"
   width="96"
   height="96"
   id="svg2"
   version="1.1"
   inkscape:version="0.48.4 r9939"
   inkscape:export-filename="M:\Dev\android_pd_projs\OKobotoke\res\drawable-mdpi\logo_test_02.png"
   inkscape:export-xdpi="48.061409"
   inkscape:export-ydpi="48.061409"
   sodipodi:docname="logo.svg">
  <defs
     id="defs4" />
  <sodipodi:namedview
     id="base"
     pagecolor="#ffffff"
     bordercolor="#666666"
     borderopacity="1.0"
     inkscape:pageopacity="0.0"
     inkscape:pageshadow="2"
     inkscape:zoom="5.6568542"
     inkscape:cx="31.675382"
     inkscape:cy="60.692652"
     inkscape:document-units="px"
     inkscape:current-layer="layer1"
     showgrid="false"
     width="96px"
     inkscape:snap-to-guides="true"
     inkscape:snap-grids="true"
     inkscape:snap-page="true"
     showguides="false"
     inkscape:guide-bbox="true"
     inkscape:snap-global="true"
     inkscape:window-width="1920"
     inkscape:window-height="1058"
     inkscape:window-x="-8"
     inkscape:window-y="-8"
     inkscape:window-maximized="1">
    <inkscape:grid
       type="xygrid"
       id="grid5263"
       empspacing="5"
       visible="true"
       enabled="true"
       snapvisiblegridlinesonly="true" />
    <sodipodi:guide
       orientation="-0.70710678,0.70710678"
       position="15,80"
       id="guide5265" />
  </sodipodi:namedview>
  <metadata
     id="metadata7">
    <rdf:RDF>
      <cc:Work
         rdf:about="">
        <dc:format>image/svg+xml</dc:format>
        <dc:type
           rdf:resource="http://purl.org/dc/dcmitype/StillImage" />
        <dc:title></dc:title>
      </cc:Work>
    </rdf:RDF>
  </metadata>
  <g
     inkscape:label="レイヤー 1"
     inkscape:groupmode="layer"
     id="layer1"
     transform="translate(0,-956.3622)">
    <path
       sodipodi:type="arc"
       style="fill:#00ff00;fill-opacity:0.64238411;fill-rule:evenodd;stroke:none"
       id="path2985"
       sodipodi:cx="24.433065"
       sodipodi:cy="26.80455"
       sodipodi:rx="16.225574"
       sodipodi:ry="14.89975"
       d="m 40.65864,26.80455 a 16.225574,14.89975 0 1 1 -32.4511491,0 16.225574,14.89975 0 1 1 32.4511491,0 z"
       transform="matrix(-1.1788955,0,0,-1.3140271,51.400043,1014.6371)" />
    <path
       sodipodi:type="arc"
       style="fill:#00ff00;fill-opacity:0.6192053;stroke:none"
       id="path3755"
       sodipodi:cx="58.841385"
       sodipodi:cy="66.074234"
       sodipodi:rx="15.026019"
       sodipodi:ry="15.152288"
       d="m 73.867404,66.074234 a 15.026019,15.152288 0 1 1 -30.052038,0 15.026019,15.152288 0 1 1 30.052038,0 z"
       transform="matrix(0.95902353,0,0,0.95902353,22.532252,970.62374)" />
    <path
       style="opacity:0.57654718;fill:none;stroke:#00ff00;stroke-width:5.36000061;stroke-linecap:butt;stroke-linejoin:miter;stroke-miterlimit:4;stroke-opacity:0.47019869;stroke-dasharray:none"
       d="m 22.344983,978.55259 c 0.769808,0.80106 57.119824,55.43291 57.119824,55.43291"
       id="path3763"
       inkscape:connector-curvature="0" />
    <path
       sodipodi:type="arc"
       style="fill:#00ff00;fill-opacity:0.31788081;fill-rule:evenodd;stroke:none"
       id="path5271"
       sodipodi:cx="24.433065"
       sodipodi:cy="26.80455"
       sodipodi:rx="16.225574"
       sodipodi:ry="14.89975"
       d="m 40.65864,26.80455 a 16.225574,14.89975 0 1 1 -32.4511491,0 16.225574,14.89975 0 1 1 32.4511491,0 z"
       transform="matrix(-0.59878126,0,0,-0.66741692,71.123679,991.38302)" />
    <path
       transform="matrix(-0.59878126,0,0,-0.66741692,57.865425,992.97393)"
       d="m 40.65864,26.80455 a 16.225574,14.89975 0 1 1 -32.4511491,0 16.225574,14.89975 0 1 1 32.4511491,0 z"
       sodipodi:ry="14.89975"
       sodipodi:rx="16.225574"
       sodipodi:cy="26.80455"
       sodipodi:cx="24.433065"
       id="path5273"
       style="fill:#00ff00;fill-opacity:0.47682118;fill-rule:evenodd;stroke:none"
       sodipodi:type="arc" />
    <path
       transform="matrix(-0.59878126,0,0,-0.66741692,83.674826,994.91854)"
       d="m 40.65864,26.80455 a 16.225574,14.89975 0 1 1 -32.4511491,0 16.225574,14.89975 0 1 1 32.4511491,0 z"
       sodipodi:ry="14.89975"
       sodipodi:rx="16.225574"
       sodipodi:cy="26.80455"
       sodipodi:cx="24.433065"
       id="path5275"
       style="fill:#00ff00;fill-opacity:0.26821193;fill-rule:evenodd;stroke:none"
       sodipodi:type="arc" />
    <path
       sodipodi:type="arc"
       style="fill:#00ff00;fill-opacity:0.17549668;fill-rule:evenodd;stroke:none"
       id="path5277"
       sodipodi:cx="24.433065"
       sodipodi:cy="26.80455"
       sodipodi:rx="16.225574"
       sodipodi:ry="14.89975"
       d="m 40.65864,26.80455 a 16.225574,14.89975 0 1 1 -32.4511491,0 16.225574,14.89975 0 1 1 32.4511491,0 z"
       transform="matrix(-0.59878126,0,0,-0.66741692,93.927873,1002.8734)" />
    <path
       transform="matrix(-0.59878126,0,0,-0.66741692,98.170514,1015.2478)"
       d="m 40.65864,26.80455 a 16.225574,14.89975 0 1 1 -32.4511491,0 16.225574,14.89975 0 1 1 32.4511491,0 z"
       sodipodi:ry="14.89975"
       sodipodi:rx="16.225574"
       sodipodi:cy="26.80455"
       sodipodi:cx="24.433065"
       id="path5279"
       style="fill:#00ff00;fill-opacity:0.13245033;fill-rule:evenodd;stroke:none"
       sodipodi:type="arc" />
    <path
       transform="matrix(-0.59878126,0,0,-0.66741692,76.073427,1055.9064)"
       d="m 40.65864,26.80455 a 16.225574,14.89975 0 1 1 -32.4511491,0 16.225574,14.89975 0 1 1 32.4511491,0 z"
       sodipodi:ry="14.89975"
       sodipodi:rx="16.225574"
       sodipodi:cy="26.80455"
       sodipodi:cx="24.433065"
       id="path5283"
       style="fill:#00ff00;fill-opacity:0.48675495;fill-rule:evenodd;stroke:none"
       sodipodi:type="arc" />
    <path
       sodipodi:type="arc"
       style="fill:#00ff00;fill-opacity:0.38410595;fill-rule:evenodd;stroke:none"
       id="path5285"
       sodipodi:cx="24.433065"
       sodipodi:cy="26.80455"
       sodipodi:rx="16.225574"
       sodipodi:ry="14.89975"
       d="m 40.65864,26.80455 a 16.225574,14.89975 0 1 1 -32.4511491,0 16.225574,14.89975 0 1 1 32.4511491,0 z"
       transform="matrix(-0.59878126,0,0,-0.66741692,62.638399,1056.0832)" />
    <path
       transform="matrix(-0.59878126,0,0,-0.66741692,50.617583,1052.1941)"
       d="m 40.65864,26.80455 a 16.225574,14.89975 0 1 1 -32.4511491,0 16.225574,14.89975 0 1 1 32.4511491,0 z"
       sodipodi:ry="14.89975"
       sodipodi:rx="16.225574"
       sodipodi:cy="26.80455"
       sodipodi:cx="24.433065"
       id="path5287"
       style="fill:#00ff00;fill-opacity:0.27152318;fill-rule:evenodd;stroke:none"
       sodipodi:type="arc" />
    <path
       sodipodi:type="arc"
       style="fill:#00ff00;fill-opacity:0.17880794;fill-rule:evenodd;stroke:none"
       id="path5289"
       sodipodi:cx="24.433065"
       sodipodi:cy="26.80455"
       sodipodi:rx="16.225574"
       sodipodi:ry="14.89975"
       d="m 40.65864,26.80455 a 16.225574,14.89975 0 1 1 -32.4511491,0 16.225574,14.89975 0 1 1 32.4511491,0 z"
       transform="matrix(-0.59878126,0,0,-0.66741692,39.480652,1046.0069)" />
    <path
       transform="matrix(-0.59878126,0,0,-0.66741692,30.99537,1036.8145)"
       d="m 40.65864,26.80455 a 16.225574,14.89975 0 1 1 -32.4511491,0 16.225574,14.89975 0 1 1 32.4511491,0 z"
       sodipodi:ry="14.89975"
       sodipodi:rx="16.225574"
       sodipodi:cy="26.80455"
       sodipodi:cx="24.433065"
       id="path5291"
       style="fill:#00ff00;fill-opacity:0.102649;fill-rule:evenodd;stroke:none"
       sodipodi:type="arc" />
  </g>
</svg>
